<?xml version="1.0" standalone="no"?><!DOCTYPE svg PUBLIC "-//W3C//DTD SVG 1.1//EN" "http://www.w3.org/Graphics/SVG/1.1/DTD/svg11.dtd"><svg t="1760165162756" class="icon" viewBox="0 0 1024 1024" version="1.1" xmlns="http://www.w3.org/2000/svg" p-id="19571" xmlns:xlink="http://www.w3.org/1999/xlink" width="128" height="128"><path d="M184.967844 1023.99305A109.262063 109.262063 0 0 1 75.955968 914.988123V109.004927A109.275963 109.275963 0 0 1 184.967844 0H839.025206a109.275963 109.275963 0 0 1 109.004927 109.004927v70.559581h-0.034748c-1.098041 141.953117-0.694963 117.740611-0.298834 93.535054 0.159841-10.549536 0.319683-21.106023 0.340532-17.895294v659.783855a109.275963 109.275963 0 0 1-109.011877 109.004927z m43.018202-280.327175a19.125378 19.125378 0 0 0-0.945149 27.034056l65.632294 70.302444a19.125378 19.125378 0 0 0 13.899258 6.080926h0.111194a19.125378 19.125378 0 0 0 13.808912-5.893286l110.346205-115.238744-0.034748-0.034748a19.125378 19.125378 0 1 0-27.610875-26.443337l-96.384401 100.595876-51.788634-55.458038a19.125378 19.125378 0 0 0-27.034056-0.945149z m261.89676 50.808736a36.735738 36.735738 0 0 0 36.638443 36.638443h267.852592a36.645392 36.645392 0 0 0 0-73.283836H526.521249a36.742687 36.742687 0 0 0-36.638443 36.645393z m-261.89676-292.092897a19.125378 19.125378 0 0 0-0.945149 27.034056L292.673191 599.752962a19.132328 19.132328 0 0 0 13.899258 6.087875h0.111194a19.132328 19.132328 0 0 0 13.808912-5.914134l110.346205-115.224845-0.034748-0.055597a19.125378 19.125378 0 1 0-27.610875-26.450287L306.808736 558.784901l-51.788634-55.458038a19.125378 19.125378 0 0 0-27.034056-0.945149z m261.89676 48.390265a36.756587 36.756587 0 0 0 36.638443 36.582846h267.852592a36.610644 36.610644 0 1 0 0-73.221289H526.521249a36.728788 36.728788 0 0 0-36.638443 36.638443zM227.979097 261.062805a19.153177 19.153177 0 0 0-0.93125 27.103552l65.625344 70.295495a19.125378 19.125378 0 0 0 13.899258 6.080925h0.111194a19.125378 19.125378 0 0 0 13.808912-5.907185l110.346205-115.224845v-0.118143A19.125378 19.125378 0 1 0 403.213986 216.828417L306.843484 317.459042l-51.781684-55.458038a19.167076 19.167076 0 0 0-27.103552-0.938199z m261.910659 45.867549a36.728788 36.728788 0 0 0 36.638443 36.638443h267.852592a36.631493 36.631493 0 1 0 0-73.262986H526.521249a36.728788 36.728788 0 0 0-36.638443 36.638443z" fill="#333333" p-id="19572"></path></svg>