<?xml version="1.0" standalone="no"?><!DOCTYPE svg PUBLIC "-//W3C//DTD SVG 1.1//EN" "http://www.w3.org/Graphics/SVG/1.1/DTD/svg11.dtd"><svg t="1760165066801" class="icon" viewBox="0 0 1109 1024" version="1.1" xmlns="http://www.w3.org/2000/svg" p-id="12321" xmlns:xlink="http://www.w3.org/1999/xlink" width="138.625" height="128"><path d="M143.381333 736.64a143.509333 143.509333 0 0 1 137.109334 101.376h73.770666v-39.36l-10.368 8.832-25.642666 21.653333L296.533333 803.413333l-86.997333-103.36-21.632-25.706666 25.749333-21.674667 399.978667-337.450667 25.642667-21.653333 21.674666 25.728 19.968 29.589333L1008.554667 50.986667l-4.629334-7.104L1048.96 0 1109.333333 62.848 1063.146667 104.32l-6.869334-5.632-331.776 302.08 23.36 21.888 21.610667 25.706667-25.685333 21.674666-45.653334 38.613334 10.453334-8.448 80.341333 337.877333h35.52a143.381333 143.381333 0 0 1 158.378667-99.754667 143.530667 143.530667 0 0 1 122.048 141.994667c0 71.04-51.882667 131.413333-122.048 141.994667a143.381333 143.381333 0 0 1-158.378667-99.754667H280.512a143.402667 143.402667 0 0 1-165.418667 98.56A143.573333 143.573333 0 0 1 0.725333 866.133333a143.488 143.488 0 0 1 142.677334-129.365333v-0.085333zM631.253333 388.373333L282.602667 682.410667l43.690666 51.925333 348.629334-294.08-43.690667-51.925333v0.021333z m-405.333333 171.626667l35.797333 35.84 178.602667-152.362667-35.776-35.84-178.602667 152.362667z" fill="#1270B3" p-id="12322"></path></svg>