<?xml version="1.0" standalone="no"?><!DOCTYPE svg PUBLIC "-//W3C//DTD SVG 1.1//EN" "http://www.w3.org/Graphics/SVG/1.1/DTD/svg11.dtd"><svg t="1760165025511" class="icon" viewBox="0 0 1024 1024" version="1.1" xmlns="http://www.w3.org/2000/svg" p-id="9848" xmlns:xlink="http://www.w3.org/1999/xlink" width="128" height="128"><path d="M501.0432 476.16l187.0336 199.936 171.4176-9.9328 62.3616 76.2368-169.3184 45.6192s-7.4752-10.24 29.696 31.7952c35.1232 39.5264 5.7344 48.8448-23.6544 22.784a96.7168 96.7168 0 0 1-29.7472-31.7952l-72.8576 162.5088-59.0336-95.1808 38.7072-129.5872-197.6832-211.3536L256 945.3568 199.68 896 269.568 351.7952A1922.4064 1922.4064 0 0 1 111.616 150.9376c-16.2304-38.7072-11.1104-65.3312 39.424-37.9904a1646.2336 1646.2336 0 0 1 194.56 176.2304l490.0352-15.8208L921.2928 343.04z" fill="#68BE8B" p-id="9849"></path></svg>